<?xml version="1.0" encoding="UTF-8"?>
<!DOCTYPE svg PUBLIC "-//W3C//DTD SVG 1.1//EN" "http://www.w3.org/Graphics/SVG/1.1/DTD/svg11.dtd">
<svg xmlns="http://www.w3.org/2000/svg" version="1.1" width="1342px" height="1015px" style="shape-rendering:geometricPrecision; text-rendering:geometricPrecision; image-rendering:optimizeQuality; fill-rule:evenodd; clip-rule:evenodd" xmlns:xlink="http://www.w3.org/1999/xlink">
<g><path style="opacity:0.99" fill="#fab803" d="M 803.5,-0.5 C 859.167,-0.5 914.833,-0.5 970.5,-0.5C 1084.88,16.4517 1189.55,57.6183 1284.5,123C 1225.72,99.0523 1164.72,82.719 1101.5,74C 919.334,47.7221 742.334,67.3888 570.5,133C 457.051,178.573 355.717,242.573 266.5,325C 261.102,324.256 256.102,322.423 251.5,319.5C 252.412,317.405 253.579,315.405 255,313.5C 274.935,290.063 295.768,267.396 317.5,245.5C 419.555,144.757 539.222,71.924 676.5,27C 718.242,14.4768 760.575,5.31018 803.5,-0.5 Z"/></g>
<g><path style="opacity:0.997" fill="#0f4483" d="M 317.5,245.5 C 295.768,267.396 274.935,290.063 255,313.5C 253.579,315.405 252.412,317.405 251.5,319.5C 231.508,311.917 210.841,309.084 189.5,311C 175.818,312.107 164.318,317.607 155,327.5C 145.961,341.452 148.128,353.286 161.5,363C 169.495,367.164 177.829,370.497 186.5,373C 219.102,381.254 251.769,389.254 284.5,397C 313.081,404.178 339.081,416.512 362.5,434C 371.566,442.319 379.066,451.819 385,462.5C 386.3,387.677 420.467,334.177 487.5,302C 538.219,282.096 589.219,281.43 640.5,300C 680.364,317.03 708.697,345.53 725.5,385.5C 731.294,353.55 747.961,329.05 775.5,312C 808.721,293.612 844.388,284.778 882.5,285.5C 912.112,285.824 941.112,290.158 969.5,298.5C 969.833,323.176 969.5,347.842 968.5,372.5C 936.657,357.898 903.323,352.398 868.5,356C 856.923,357.636 846.257,361.636 836.5,368C 828.118,373.914 825.284,381.747 828,391.5C 829.458,393.96 831.291,396.127 833.5,398C 839.234,401.199 845.234,403.865 851.5,406C 879.677,413.302 908.01,419.969 936.5,426C 960.008,431.273 981.675,440.606 1001.5,454C 1008.37,459.207 1014.21,465.374 1019,472.5C 1017.1,405.458 1044.6,354.625 1101.5,320C 1143.31,296.202 1188.31,285.036 1236.5,286.5C 1251.9,286.236 1267.23,287.069 1282.5,289C 1283.49,312.425 1283.83,335.925 1283.5,359.5C 1239.59,352.894 1199.93,362.727 1164.5,389C 1128.46,420.318 1121.29,457.151 1143,499.5C 1164.53,529.371 1193.7,547.204 1230.5,553C 1248.14,556.129 1265.81,556.295 1283.5,553.5C 1283.83,577.408 1283.49,601.241 1282.5,625C 1232.7,632.906 1184.04,628.573 1136.5,612C 1100.69,598.531 1071.19,576.697 1048,546.5C 1042.49,538.16 1037.49,529.493 1033,520.5C 1030.72,550.567 1018.22,575.401 995.5,595C 964.666,619.842 929.332,633.508 889.5,636C 837.279,638.122 787.279,628.622 739.5,607.5C 738.333,579.173 738.167,550.839 739,522.5C 781.6,545.359 827.1,557.692 875.5,559.5C 892.64,559.801 908.307,555.301 922.5,546C 931.329,536.622 932.829,526.122 927,514.5C 918.383,506.273 908.217,500.773 896.5,498C 873.345,491.902 850.012,486.569 826.5,482C 801.018,477.285 777.018,468.618 754.5,456C 748.377,452.211 743.21,447.378 739,441.5C 739.783,457.495 739.616,473.495 738.5,489.5C 653.831,489.167 569.164,489.5 484.5,490.5C 495.196,525.029 518.196,546.196 553.5,554C 583.531,558.682 612.864,555.849 641.5,545.5C 642.5,570.158 642.833,594.824 642.5,619.5C 617.023,625.497 591.189,628.83 565,629.5C 515.764,630.205 472.598,614.705 435.5,583C 417.982,565.64 404.649,545.473 395.5,522.5C 389.951,565.195 367.951,596.029 329.5,615C 294.537,630.551 257.871,638.051 219.5,637.5C 155.758,636.686 96.091,621.019 40.5,590.5C 57.639,562.375 76.3057,535.375 96.5,509.5C 126.038,528.962 158.371,541.462 193.5,547C 210.836,548.981 228.169,548.981 245.5,547C 258.341,545.33 269.174,539.83 278,530.5C 284.818,514.625 280.651,502.458 265.5,494C 251.693,487.264 237.36,481.93 222.5,478C 193.677,471.736 165.01,464.903 136.5,457.5C 129.785,454.595 122.785,452.262 115.5,450.5C 52.5614,432.025 26.7281,390.358 38,325.5C 44.8641,297.639 60.0307,275.472 83.5,259C 120.559,235.775 161.059,224.942 205,226.5C 243.682,226.086 281.182,232.419 317.5,245.5 Z M 555.5,363.5 C 604.618,360.811 634.618,383.311 645.5,431C 591.83,431.833 538.164,431.667 484.5,430.5C 493.066,391.928 516.733,369.595 555.5,363.5 Z"/></g>
<g><path style="opacity:0.992" fill="#fab804" d="M 115.5,450.5 C 122.785,452.262 129.785,454.595 136.5,457.5C 122.784,474.548 109.45,491.882 96.5,509.5C 76.3057,535.375 57.639,562.375 40.5,590.5C 26.3163,582.65 12.6496,573.983 -0.5,564.5C -0.5,564.167 -0.5,563.833 -0.5,563.5C 35.5979,523.067 74.2645,485.4 115.5,450.5 Z"/></g>
<g><path style="opacity:0.997" fill="#0e4483" d="M 508.5,1014.5 C 501.833,1014.5 495.167,1014.5 488.5,1014.5C 460.705,1013.13 434.372,1005.97 409.5,993C 393.782,983.949 382.282,971.116 375,954.5C 374.5,974.497 374.333,994.497 374.5,1014.5C 354.5,1014.5 334.5,1014.5 314.5,1014.5C 282.245,977.406 249.411,940.74 216,904.5C 215.5,941.165 215.333,977.832 215.5,1014.5C 183.833,1014.5 152.167,1014.5 120.5,1014.5C 97.0727,1013.24 74.4061,1008.08 52.5,999C 6.30943,976.122 -8.52391,940.288 8,891.5C 21.9549,869.076 41.7883,854.243 67.5,847C 84.1097,841.794 101.11,838.961 118.5,838.5C 118.832,851.517 118.499,864.517 117.5,877.5C 99.6498,879.055 83.8164,885.389 70,896.5C 54.0589,919.442 56.5589,940.276 77.5,959C 89.8216,967.553 103.488,972.553 118.5,974C 131.162,974.5 143.829,974.667 156.5,974.5C 156.5,928.833 156.5,883.167 156.5,837.5C 193.52,838.097 224.353,852.097 249,879.5C 271.333,904.5 293.667,929.5 316,954.5C 316.5,915.501 316.667,876.501 316.5,837.5C 335.833,837.5 355.167,837.5 374.5,837.5C 374.333,856.836 374.5,876.17 375,895.5C 384.724,875.547 399.891,861.38 420.5,853C 448.735,841.419 478.068,836.586 508.5,838.5C 508.5,851.5 508.5,864.5 508.5,877.5C 487.36,875.64 467.36,879.473 448.5,889C 427.514,903.633 422.681,922.467 434,945.5C 445.078,961.135 460.245,970.302 479.5,973C 489.121,974.286 498.788,974.786 508.5,974.5C 508.5,987.833 508.5,1001.17 508.5,1014.5 Z"/></g>
<g><path style="opacity:0.995" fill="#0e4483" d="M 708.5,1014.5 C 702.5,1014.5 696.5,1014.5 690.5,1014.5C 664.613,1012.48 641.28,1003.65 620.5,988C 629.014,979.319 637.681,970.819 646.5,962.5C 659.168,971.667 673.168,977.834 688.5,981C 696.167,981.667 703.833,981.667 711.5,981C 718.219,980.23 723.386,977.063 727,971.5C 729.352,961.514 725.519,955.347 715.5,953C 699.93,948.619 684.263,944.619 668.5,941C 655.248,937.962 644.081,931.462 635,921.5C 622.295,895.483 627.795,874.317 651.5,858C 674.457,847.16 698.29,844.66 723,850.5C 723.5,861.828 723.667,873.162 723.5,884.5C 714.324,882.065 704.991,880.399 695.5,879.5C 686.699,879.484 679.199,882.484 673,888.5C 669.848,897.367 672.681,903.534 681.5,907C 695.635,911.427 709.968,915.094 724.5,918C 739.957,921.142 753.124,928.309 764,939.5C 769.846,895.491 795.013,872.491 839.5,870.5C 875.466,870.543 898.966,887.543 910,921.5C 916.692,893.145 934.526,876.978 963.5,873C 1021.48,867.983 1048.98,894.483 1046,952.5C 1051.83,939.679 1061.67,931.513 1075.5,928C 1085.53,925.642 1095.69,924.476 1106,924.5C 1117.52,924.954 1129.02,925.62 1140.5,926.5C 1138.77,914.931 1132.1,908.098 1120.5,906C 1115.21,905.023 1109.87,904.523 1104.5,904.5C 1104.5,893.5 1104.5,882.5 1104.5,871.5C 1124.24,869.58 1142.91,873.08 1160.5,882C 1172.29,890.071 1179.12,901.238 1181,915.5C 1190.05,889.45 1207.55,871.617 1233.5,862C 1249.67,856.191 1266.33,853.691 1283.5,854.5C 1283.5,865.167 1283.5,875.833 1283.5,886.5C 1263.57,885.886 1247.41,893.219 1235,908.5C 1222.39,931.781 1225.89,952.281 1245.5,970C 1256.94,977.861 1269.61,981.361 1283.5,980.5C 1283.5,991.5 1283.5,1002.5 1283.5,1013.5C 1251.06,1015.08 1222.9,1005.08 1199,983.5C 1192.05,975.871 1186.72,967.204 1183,957.5C 1182.5,973.83 1182.33,990.163 1182.5,1006.5C 1168.5,1006.5 1154.5,1006.5 1140.5,1006.5C 1140.67,1001.82 1140.5,997.155 1140,992.5C 1127.57,1003.71 1112.9,1009.04 1096,1008.5C 1078.15,1009.33 1063.15,1003.33 1051,990.5C 1049.08,987.661 1047.41,984.661 1046,981.5C 1045.5,989.827 1045.33,998.16 1045.5,1006.5C 1031.17,1006.5 1016.83,1006.5 1002.5,1006.5C 1002.96,979.124 1002.46,951.791 1001,924.5C 996.6,909.875 986.766,903.708 971.5,906C 961.925,908.577 956.091,914.743 954,924.5C 952.544,951.791 952.044,979.124 952.5,1006.5C 937.833,1006.5 923.167,1006.5 908.5,1006.5C 908.5,988.833 908.5,971.167 908.5,953.5C 875.16,953.167 841.827,953.5 808.5,954.5C 812.543,966.707 820.877,974.207 833.5,977C 839.207,978.103 844.874,978.269 850.5,977.5C 850.5,987.833 850.5,998.167 850.5,1008.5C 820.881,1011.47 796.381,1001.8 777,979.5C 775,976.167 773,972.833 771,969.5C 766.673,990.946 753.84,1004.45 732.5,1010C 724.459,1012.06 716.459,1013.56 708.5,1014.5 Z M 834.5,901.5 C 854.12,900.476 865.787,909.476 869.5,928.5C 848.831,928.667 828.164,928.5 807.5,928C 811.156,913.509 820.156,904.676 834.5,901.5 Z M 1110.5,949.5 C 1120.2,949.409 1129.86,949.909 1139.5,951C 1141.33,966.22 1134.66,975.887 1119.5,980C 1109.82,982.275 1100.48,981.275 1091.5,977C 1081.96,968.838 1082.3,961.171 1092.5,954C 1098.48,951.839 1104.48,950.339 1110.5,949.5 Z"/></g>
</svg>
